<?xml version="1.0" encoding="UTF-8" standalone="no"?>
<!-- Created with Inkscape (http://www.inkscape.org/) -->

<svg
   xmlns:dc="http://purl.org/dc/elements/1.1/"
   xmlns:cc="http://creativecommons.org/ns#"
   xmlns:rdf="http://www.w3.org/1999/02/22-rdf-syntax-ns#"
   xmlns:svg="http://www.w3.org/2000/svg"
   xmlns="http://www.w3.org/2000/svg"
   xmlns:sodipodi="http://sodipodi.sourceforge.net/DTD/sodipodi-0.dtd"
   xmlns:inkscape="http://www.inkscape.org/namespaces/inkscape"
   width="382.06335mm"
   height="151.34544mm"
   viewBox="0 0 1353.7678 536.26338"
   id="svg2"
   version="1.1"
   inkscape:version="0.91 r"
   sodipodi:docname="model.svg">
  <defs
     id="defs4" />
  <sodipodi:namedview
     id="base"
     pagecolor="#ffffff"
     bordercolor="#666666"
     borderopacity="1.0"
     inkscape:pageopacity="0.0"
     inkscape:pageshadow="2"
     inkscape:zoom="1.284563"
     inkscape:cx="678.44085"
     inkscape:cy="268.13169"
     inkscape:document-units="px"
     inkscape:current-layer="layer1"
     showgrid="false"
     fit-margin-top="0"
     fit-margin-left="0"
     fit-margin-right="0"
     fit-margin-bottom="0"
     inkscape:window-width="1920"
     inkscape:window-height="1020"
     inkscape:window-x="0"
     inkscape:window-y="0"
     inkscape:window-maximized="1" />
  <metadata
     id="metadata7">
    <rdf:RDF>
      <cc:Work
         rdf:about="">
        <dc:format>image/svg+xml</dc:format>
        <dc:type
           rdf:resource="http://purl.org/dc/dcmitype/StillImage" />
        <dc:title />
      </cc:Work>
    </rdf:RDF>
  </metadata>
  <g
     inkscape:label="Layer 1"
     inkscape:groupmode="layer"
     id="layer1"
     transform="translate(374.30343,-189.58086)">
    <rect
       style="opacity:0.45089291;fill:#ffffff;fill-opacity:1;fill-rule:nonzero;stroke:none;stroke-width:6;stroke-miterlimit:4;stroke-dasharray:none;stroke-dashoffset:0;stroke-opacity:1"
       id="rect3362"
       width="1357.6602"
       height="540.26154"
       x="-373.52496"
       y="188.69659" />
    <path
       style="fill:#000000"
       d="m 9.3203525,724.90688 c -0.079125,-0.51563 -0.04375,-1.92188 0.078625,-3.125 0.174525,-1.71565 -0.738125,-2.1875 -4.23105,-2.1875 l -4.4536375,0 0,-41.23194 0,-41.23193 -38.4375,-0.33057 -38.4375,-0.33056 -0.325375,-55.9375 -0.325362,-55.9375 -25.538363,0 c -14.0461,0 -25.82817,0.46893 -26.18239,1.04206 -0.35421,0.57314 -2.87153,2.58573 -5.59405,4.47244 -4.78311,3.31469 -5.05893,3.359 -8.17974,1.31416 l -3.22972,-2.11618 0,15.76876 0,15.76876 -109.91306,0 -109.91306,0 -0.39944,-2.8125 c -0.31286,-2.2029 -1.21224,-2.8125 -4.14944,-2.8125 l -3.75,0 -0.32136,-83.44423 -0.32136,-83.44421 111.57136,0.31921 111.57136,0.31923 0.3917,4.0625 c 0.29408,3.05002 0.99501,4.0625 2.8125,4.0625 2.30961,0 2.4208,1.09281 2.4208,23.79397 0,23.13707 0.0667,23.75827 2.41783,22.5 3.8642,-2.06804 6.65903,-1.44721 11.28496,2.50683 l 4.32777,3.6992 25.35139,0 25.351388,0 0.320837,-89.0625 0.320825,-89.0625 38.4375,-0.33056 38.4375,-0.33057 0,-40.61365 0,-40.61366 111.5625,0.31922 111.5625,0.31922 0.3917,4.0625 c 0.29407,3.05003 0.99501,4.0625 2.8125,4.0625 2.36976,0 2.4208,1.7262 2.4208,81.875 l 0,81.875 -109.91306,0 -109.913065,0 -0.3994375,-2.8125 C 8.925865,357.07898 8.02649,356.46938 5.08929,356.46938 l -3.75,0 -0.3298125,-40.3125 -0.329825,-40.3125 -36.8493505,0 -36.84935,0 -0.320837,89.0625 -0.320825,89.0625 -26.92956,0.625 -26.92957,0.625 -5.42653,4.30107 c -5.3192,4.21599 -5.4974,4.26042 -9.00795,2.24564 l -3.58139,-2.05544 0,27.58563 0,27.58562 3.16031,-2.07071 c 3.41012,-2.2344 3.91787,-2.08224 10.73758,3.21761 l 4.52289,3.51491 26.72711,0.33783 26.72711,0.33784 0.3252,56.50339 0.3252,56.50339 36.8623,0.0406 36.8623,0.0406 0,-41.86319 0,-41.8632 111.5625,0.31922 111.5625,0.31922 0.3917,4.0625 c 0.29408,3.05002 0.99501,4.0625 2.8125,4.0625 2.19149,0 2.4208,0.94175 2.4208,9.94186 l 0,9.94186 3.54209,-2.03287 c 3.46757,-1.99013 3.66855,-1.93632 9.55475,2.55813 l 6.01266,4.59094 24.81539,0 24.81538,0 0.31737,-155.9375 0.31736,-155.9375 38.4375,-0.33056 38.4375,-0.33057 0,-40.61365 0,-40.61366 111.5625,0.31922 111.5625,0.31922 0.3917,4.0625 c 0.29408,3.05003 0.99501,4.0625 2.8125,4.0625 2.31416,0 2.4208,1.10753 2.4208,25.14376 l 0,25.14376 3.16031,-2.07071 c 3.38901,-2.22057 3.90231,-2.07221 10.58969,3.06085 l 4.375,3.35814 62.5,0.68234 c 34.375,0.37529 63.20312,0.41036 64.0625,0.0779 1.19317,-0.46155 1.5625,-8.11561 1.5625,-32.38196 l 0,-31.77755 111.5625,0.31922 111.5625,0.31921 0.39175,4.0625 c 0.294,3.05003 0.995,4.0625 2.8125,4.0625 2.3705,0 2.42075,1.75346 2.42075,84.375 l 0,84.375 -110,0 c -87.08767,0 -110.03085,-0.32546 -110.1481,-1.5625 -0.0815,-0.85937 -0.0567,-2.26562 0.0548,-3.125 0.12911,-0.99423 -1.40817,-1.5625 -4.22689,-1.5625 l -4.42976,0 0,-51.25 0,-51.25 -64.30122,0 c -35.36568,0 -64.59105,0.46893 -64.94527,1.04206 -0.35421,0.57314 -2.87153,2.58573 -5.59405,4.47243 -4.78311,3.3147 -5.05893,3.35901 -8.17973,1.31418 l -3.22973,-2.11619 0,28.96443 0,28.96443 3.61823,-2.13734 c 3.59117,-2.12136 3.65963,-2.1034 9.16013,2.40385 l 5.54192,4.54117 26.77736,0.33799 26.77736,0.33799 0.31744,153.37837 0.31742,153.37838 36.87008,0.0406 36.87006,0.0406 0,-41.23819 0,-41.2382 111.5625,0.31923 111.5625,0.31921 0.39175,4.0625 c 0.294,3.05003 0.995,4.0625 2.8125,4.0625 2.36975,0 2.42075,1.7262 2.42075,81.875 l 0,81.875 -109.913,0 -109.91312,0 -0.39944,-2.8125 c -0.31286,-2.2029 -1.21224,-2.8125 -4.14944,-2.8125 l -3.75,0 -0.32979,-40.29446 -0.3298,-40.29446 -38.4202,-0.33054 -38.42021,-0.33059 -0.31746,-152.8125 -0.31745,-152.8125 -25.54628,0 c -14.05045,0 -25.83608,0.46893 -26.1903,1.04206 -0.35421,0.57314 -2.87153,2.58573 -5.59405,4.47244 -4.78311,3.31469 -5.05893,3.359 -8.17973,1.31416 l -3.22973,-2.11618 0,13.26876 0,13.26876 -55.14376,0 -55.14376,0 2.10773,3.21683 c 2.05472,3.13587 1.99543,3.37991 -2.35624,9.69832 l -4.46397,6.4815 0,84.66354 0,84.66354 54.6875,0.32563 54.6875,0.32564 0.3917,4.0625 c 0.29408,3.05002 0.99501,4.0625 2.8125,4.0625 2.36995,0 2.4208,1.73301 2.4208,82.5 l 0,82.5 -110,0 -110,0 0,-3.125 c 0,-2.7381 -0.54166,-3.125 -4.375,-3.125 l -4.375,0 0,-40.625 0,-40.625 -63.93376,0 -63.93377,0 -5.57301,4.56666 c -5.53272,4.53365 -5.59917,4.55122 -9.19124,2.42934 l -3.61822,-2.13734 0,41.94567 0,41.94567 -110,0 c -60.5,0 -110.064775,-0.42188 -110.1439375,-0.9375 z m 210.1439375,-30.3125 0,-21.25 -107.5,0 -107.5,0 0,21.25 0,21.25 107.5,0 107.5,0 z m 375,-1.25 0,-21.25 -106.875,0 -106.875,0 0,21.25 0,21.25 106.875,0 106.875,0 z m 375,-12.5 0,-32.5 -106.875,0 -106.875,0 0,32.5 0,32.5 106.875,0 106.875,0 z m -750,-46.25 0,-33.75 -107.5,0 -107.5,0 0,33.75 0,33.75 107.5,0 107.5,0 z m 375,0 0,-32.5 -106.875,0 -106.875,0 0,32.5 0,32.5 106.875,0 106.875,0 z m 375,-10.625 0,-20.625 -106.875,0 -106.875,0 0,20.625 0,20.625 106.875,0 106.875,0 z m -725.00008,10.625 c 0,-0.34375 -1.9095,-2.1486 -4.24335,-4.01077 l -4.24333,-3.38577 -2.94413,2.55778 c -1.61926,1.40677 -3.78786,3.071 -4.81911,3.69826 -1.66666,1.01377 -1.66666,1.26723 0,2.281 1.03125,0.62726 3.19985,2.29149 4.81911,3.69826 l 2.94413,2.55778 4.24333,-3.38577 c 2.33385,-1.86217 4.24335,-3.66702 4.24335,-4.01077 z m 131.25008,-43.125 0,-40.625 54.375,0 54.375,0 0,-84.67668 0,-84.67667 -4.46398,-6.4815 c -4.35166,-6.31841 -4.41095,-6.56245 -2.35623,-9.69832 l 2.10773,-3.21683 -47.55682,0 -47.55683,0 -0.39943,-2.8125 c -0.31287,-2.2029 -1.21224,-2.8125 -4.14944,-2.8125 l -3.75,0 -0.32981,-40.3125 -0.32983,-40.3125 -36.85767,0 -36.85769,0 0,155.625 0,155.625 -26.06515,0 c -25.76704,0 -26.11371,0.0354 -30.3125,3.09824 -7.48046,5.45664 -9.77615,6.3132 -12.448,4.6446 -1.31474,-0.82106 -2.67931,-1.49284 -3.03239,-1.49284 -0.35307,0 -0.64196,7.65844 -0.64196,17.01876 l 0,17.01876 3.22973,-2.11618 c 3.1208,-2.04484 3.39662,-2.00053 8.17973,1.31416 2.72252,1.88671 5.23984,3.8993 5.59405,4.47244 0.35422,0.57313 29.57959,1.04206 64.94527,1.04206 l 64.30122,0 z m -115,21.25 c 0,-3.05555 -0.56547,-4.375 -1.875,-4.375 -2.48766,0 -2.3704,-1.22334 0.3125,-3.25994 3.56741,-2.70805 4.0625,-2.08226 4.0625,5.13494 0,3.78125 -0.5625,6.875 -1.25,6.875 -0.6875,0 -1.25,-1.96875 -1.25,-4.375 z m 81.5,2.875 c -0.825,-0.825 -1.5,-3.24375 -1.5,-5.375 0,-4.5577 1.93515,-6.875 5.74126,-6.875 2.92519,0 4.25874,2.15279 4.25874,6.875 0,1.60629 -0.34143,3.81029 -0.75874,4.89776 -0.89421,2.33029 -5.59821,2.62029 -7.74126,0.47724 z m 5.375,-5.375 c 0,-1.94791 -0.70313,-3.77604 -1.5625,-4.0625 -1.0606,-0.35354 -1.5625,0.95139 -1.5625,4.0625 0,3.11111 0.5019,4.41604 1.5625,4.0625 0.85937,-0.28646 1.5625,-2.11459 1.5625,-4.0625 z m 4.375,5.625 c 0,-0.6875 0.5625,-1.25 1.25,-1.25 0.6875,0 1.25,0.5625 1.25,1.25 0,0.6875 -0.5625,1.25 -1.25,1.25 -0.6875,0 -1.25,-0.5625 -1.25,-1.25 z m 5,0 c 0,-0.6875 0.5625,-1.25 1.25,-1.25 0.6875,0 1.25,0.5625 1.25,1.25 0,0.6875 -0.5625,1.25 -1.25,1.25 -0.6875,0 -1.25,-0.5625 -1.25,-1.25 z m 4.50874,-8.22724 c -1.02073,-2.65996 -1.02263,-2.65402 1.11626,-3.4748 3.01665,-1.15758 5.40949,0.38116 4.71608,3.03277 -0.76119,2.91077 -4.76845,3.21448 -5.83234,0.44203 z m 90.74126,-73.27276 c -0.825,-0.825 -1.5,-3.24375 -1.5,-5.375 0,-4.5577 1.93515,-6.875 5.74126,-6.875 2.92519,0 4.25874,2.15279 4.25874,6.875 0,1.60629 -0.34143,3.81029 -0.75874,4.89776 -0.89421,2.33029 -5.59821,2.62029 -7.74126,0.47724 z m 5.375,-5.375 c 0,-1.94791 -0.70313,-3.77604 -1.5625,-4.0625 -1.0606,-0.35354 -1.5625,0.95139 -1.5625,4.0625 0,3.11111 0.5019,4.41604 1.5625,4.0625 0.85937,-0.28646 1.5625,-2.11459 1.5625,-4.0625 z m 4.375,5.625 c 0,-0.6875 0.5625,-1.25 1.25,-1.25 0.6875,0 1.25,0.5625 1.25,1.25 0,0.6875 -0.5625,1.25 -1.25,1.25 -0.6875,0 -1.25,-0.5625 -1.25,-1.25 z m 5,0 c 0,-0.6875 0.5625,-1.25 1.25,-1.25 0.6875,0 1.25,0.5625 1.25,1.25 0,0.6875 -0.5625,1.25 -1.25,1.25 -0.6875,0 -1.25,-0.5625 -1.25,-1.25 z m 4.50874,-8.22724 c -1.02073,-2.65996 -1.02263,-2.65402 1.11626,-3.4748 3.01665,-1.15758 5.40949,0.38116 4.71608,3.03277 -0.76119,2.91077 -4.76845,3.21448 -5.83234,0.44203 z m -8.25874,-131.14776 c 0,-3.05555 -0.56547,-4.375 -1.875,-4.375 -2.48766,0 -2.3704,-1.22334 0.3125,-3.25994 3.56741,-2.70805 4.0625,-2.08226 4.0625,5.13494 0,3.78125 -0.5625,6.875 -1.25,6.875 -0.6875,0 -1.25,-1.96875 -1.25,-4.375 z m 131.25,181.875 0,-21.25 -106.875,0 -106.875,0 0,21.25 0,21.25 106.875,0 106.875,0 z m 375,0 0,-21.25 -106.875,0 -106.875,0 0,21.25 0,21.25 106.875,0 106.875,0 z m -750,-1.875 0,-20.625 -107.5,0 -107.5,0 0,20.625 0,20.625 107.5,0 107.5,0 z m 21.85603,13.50582 4.22243,-3.36916 -4.87846,-3.58766 -4.87846,-3.58766 -4.4307,3.51932 -4.4307,3.51934 4.08242,3.40387 c 2.24534,1.87213 4.53437,3.419 5.08673,3.4375 0.55235,0.0185 2.90439,-1.4825 5.22674,-3.33555 z m -396.85603,-70.3878 0,-32.50698 -107.1875,0.31948 -107.1875,0.31948 -0.3336,32.1875 -0.33361,32.1875 107.52111,0 107.5211,0 z m 24.99993,3.75698 c 0,-0.34375 -1.9095,-2.1486 -4.24335,-4.01077 l -4.24334,-3.38577 -2.94413,2.55778 c -1.61926,1.40677 -3.78786,3.071 -4.81911,3.69826 -1.66666,1.01377 -1.66666,1.26723 0,2.281 1.03125,0.62726 3.19985,2.29149 4.81911,3.69826 l 2.94413,2.55778 4.24334,-3.38577 c 2.33385,-1.86217 4.24335,-3.66702 4.24335,-4.01077 z m -24.99993,-60.625 0,-20.625 -107.5,0 -107.5,0 0,20.625 0,20.625 107.5,0 107.5,0 z m 21.25241,-5.48305 4.98078,-3.60805 -4.28319,-3.26695 c -4.92239,-3.75449 -6.40635,-3.98917 -8.97599,-1.41952 -1.01608,1.01607 -2.80402,2.39227 -3.97321,3.05822 -1.87215,1.06635 -1.60377,1.66018 2.2492,4.97679 2.40625,2.07127 4.5205,3.78882 4.69833,3.81676 0.17782,0.0279 2.56466,-1.57282 5.30408,-3.55725 z m -21.25241,-41.39195 0,-21.25 -107.5,0 -107.5,0 0,21.25 0,21.25 107.5,0 107.5,0 z m 646.51077,-41.74343 3.38577,-4.24333 -2.55778,-2.94413 c -1.40677,-1.61926 -3.071,-3.78786 -3.69826,-4.81911 -1.01377,-1.66666 -1.26722,-1.66666 -2.281,0 -0.62726,1.03125 -2.29149,3.19985 -3.69826,4.81911 l -2.55778,2.94413 3.38577,4.24333 c 1.86217,2.33385 3.66702,4.24335 4.01077,4.24335 0.34375,0 2.1486,-1.9095 4.01077,-4.24335 z m 478.48923,-37.00657 0,-21.25 -106.875,0 -106.875,0 0,21.25 0,21.25 106.875,0 106.875,0 z m -750,-16.25698 0,-32.50698 -107.1875,0.31948 -107.1875,0.31948 -0.3336,32.1875 -0.3336,32.1875 107.5211,0 107.5211,0 z m 375,0.008 0,-32.5 -106.875,0 -106.875,0 0,32.5 0,32.5 106.875,0 106.875,0 z m 24.99993,8.75 c 0,-0.34375 -1.9095,-2.14861 -4.24335,-4.01078 l -4.24334,-3.38576 -2.94413,2.55777 c -1.61926,1.40678 -3.78786,3.071 -4.81911,3.69827 -1.66666,1.01377 -1.66666,1.26722 0,2.281 1.03125,0.62726 3.19985,2.29148 4.81911,3.69826 l 2.94413,2.55777 4.24334,-3.38576 c 2.33385,-1.86217 4.24335,-3.66702 4.24335,-4.01077 z m 350.00007,-53.12553 0,-34.375 -106.875,0 -106.875,0 0,34.375 0,34.375 106.875,0 106.875,0 z m -750,-13.12549 0,-21.25 -107.5,0 -107.5,0 0,21.25 0,21.25 107.5,0 107.5,0 z m 375,0 0,-21.25 -106.875,0 -106.875,0 0,21.25 0,21.25 106.875,0 106.875,0 z m 24.99993,-6.25 c 0,-0.34375 -1.9095,-2.1486 -4.24335,-4.01077 l -4.24334,-3.38577 -2.94413,2.55778 c -1.61926,1.40677 -3.78786,3.07099 -4.81911,3.69827 -1.66666,1.01377 -1.66666,1.26721 0,2.28098 1.03125,0.62728 3.19985,2.2915 4.81911,3.69827 l 2.94413,2.55778 4.24334,-3.38577 c 2.33385,-1.86217 4.24335,-3.66702 4.24335,-4.01077 z m -399.99993,-40.625 0,-20.625 -107.5,0 -107.5,0 0,20.625 0,20.625 107.5,0 107.5,0 z m 375,0 0,-20.625 -106.875,0 -106.875,0 0,20.625 0,20.625 106.875,0 106.875,0 z m 375,0 0,-20.625 -106.875,0 -106.875,0 0,20.625 0,20.625 106.875,0 106.875,0 z m -1002.25,400.375 c -0.825,-0.825 -1.5,-3.24375 -1.5,-5.375 0,-4.5577 1.93515,-6.875 5.741263,-6.875 2.925187,0 4.258737,2.15279 4.258737,6.875 0,1.60629 -0.341425,3.81029 -0.758737,4.89776 -0.894213,2.33029 -5.598213,2.62029 -7.741263,0.47724 z m 5.375,-5.375 c 0,-1.94791 -0.703125,-3.77604 -1.5625,-4.0625 -1.0606,-0.35354 -1.5625,0.95139 -1.5625,4.0625 0,3.11111 0.5019,4.41604 1.5625,4.0625 0.859375,-0.28646 1.5625,-2.11459 1.5625,-4.0625 z m 4.375,5.625 c 0,-0.6875 0.5625,-1.25 1.25,-1.25 0.6875,0 1.25,0.5625 1.25,1.25 0,0.6875 -0.5625,1.25 -1.25,1.25 -0.6875,0 -1.25,-0.5625 -1.25,-1.25 z m 5,0 c 0,-0.6875 0.5625,-1.25 1.25,-1.25 0.6875,0 1.25,0.5625 1.25,1.25 0,0.6875 -0.5625,1.25 -1.25,1.25 -0.6875,0 -1.25,-0.5625 -1.25,-1.25 z m 735.25,-0.25 c -0.825,-0.825 -1.5,-3.24375 -1.5,-5.375 0,-4.5577 1.93515,-6.875 5.74126,-6.875 2.92519,0 4.25874,2.15279 4.25874,6.875 0,1.60629 -0.34143,3.81029 -0.75874,4.89776 -0.89421,2.33029 -5.59821,2.62029 -7.74126,0.47724 z m 5.375,-5.375 c 0,-1.94791 -0.70313,-3.77604 -1.5625,-4.0625 -1.0606,-0.35354 -1.5625,0.95139 -1.5625,4.0625 0,3.11111 0.5019,4.41604 1.5625,4.0625 0.85937,-0.28646 1.5625,-2.11459 1.5625,-4.0625 z m 4.375,5.625 c 0,-0.6875 0.5625,-1.25 1.25,-1.25 0.6875,0 1.25,0.5625 1.25,1.25 0,0.6875 -0.5625,1.25 -1.25,1.25 -0.6875,0 -1.25,-0.5625 -1.25,-1.25 z m 5,0 c 0,-0.6875 0.5625,-1.25 1.25,-1.25 0.6875,0 1.25,0.5625 1.25,1.25 0,0.6875 -0.5625,1.25 -1.25,1.25 -0.6875,0 -1.25,-0.5625 -1.25,-1.25 z m -745.491262,-8.22724 c -1.020725,-2.65996 -1.022626,-2.65402 1.116262,-3.4748 3.01665,-1.15758 5.4094875,0.38116 4.716075,3.03277 -0.7611875,2.91077 -4.76845,3.21448 -5.832337,0.44203 z m 750.000002,0 c -1.02073,-2.65996 -1.02263,-2.65402 1.11626,-3.4748 3.01665,-1.15758 5.40949,0.38116 4.71608,3.03277 -0.76119,2.91077 -4.76845,3.21448 -5.83234,0.44203 z M 260.71429,563.96938 c 0,-3.05555 -0.56547,-4.375 -1.875,-4.375 -2.48766,0 -2.3704,-1.22334 0.3125,-3.25994 3.56741,-2.70805 4.0625,-2.08226 4.0625,5.13494 0,3.78125 -0.5625,6.875 -1.25,6.875 -0.6875,0 -1.25,-1.96875 -1.25,-4.375 z m -375,-63.75 c 0,-3.05555 -0.56547,-4.375 -1.875,-4.375 -2.48766,0 -2.3704,-1.22334 0.3125,-3.25994 3.56741,-2.70805 4.0625,-2.08226 4.0625,5.13494 0,3.78125 -0.5625,6.875 -1.25,6.875 -0.6875,0 -1.25,-1.96875 -1.25,-4.375 z m 0,-70 c 0,-3.05555 -0.56547,-4.375 -1.875,-4.375 -2.48766,0 -2.3704,-1.22334 0.3125,-3.25994 3.56741,-2.70805 4.0625,-2.08226 4.0625,5.13494 0,3.78125 -0.5625,6.875 -1.25,6.875 -0.6875,0 -1.25,-1.96875 -1.25,-4.375 z m 750,-123.75 c 0,-3.05555 -0.56547,-4.375 -1.875,-4.375 -2.48766,0 -2.3704,-1.22334 0.3125,-3.25994 3.56741,-2.70805 4.0625,-2.08226 4.0625,5.13494 0,3.78125 -0.5625,6.875 -1.25,6.875 -0.6875,0 -1.25,-1.96875 -1.25,-4.375 z m -656.25,-55 c 0,-3.05556 -0.565475,-4.375 -1.875,-4.375 -2.487663,0 -2.3704,-1.22333 0.3125,-3.25994 3.567412,-2.70805 4.0625,-2.08227 4.0625,5.13494 0,3.78125 -0.5625,6.875 -1.25,6.875 -0.6875,0 -1.25,-1.96875 -1.25,-4.375 z m 362.75,-8.375 c -0.825,-0.825 -1.5,-3.24375 -1.5,-5.375 0,-4.55771 1.93515,-6.875 5.74126,-6.875 2.92519,0 4.25874,2.15278 4.25874,6.875 0,1.60629 -0.34143,3.81029 -0.75874,4.89777 -0.89421,2.33028 -5.59821,2.62028 -7.74126,0.47723 z m 5.375,-5.375 c 0,-1.94792 -0.70313,-3.77604 -1.5625,-4.0625 -1.0606,-0.35354 -1.5625,0.95139 -1.5625,4.0625 0,3.11111 0.5019,4.41604 1.5625,4.0625 0.85937,-0.28646 1.5625,-2.11458 1.5625,-4.0625 z m 4.375,5.625 c 0,-0.6875 0.5625,-1.25 1.25,-1.25 0.6875,0 1.25,0.5625 1.25,1.25 0,0.6875 -0.5625,1.25 -1.25,1.25 -0.6875,0 -1.25,-0.5625 -1.25,-1.25 z m 5,0 c 0,-0.6875 0.5625,-1.25 1.25,-1.25 0.6875,0 1.25,0.5625 1.25,1.25 0,0.6875 -0.5625,1.25 -1.25,1.25 -0.6875,0 -1.25,-0.5625 -1.25,-1.25 z m 278.75,-8.125 c 0,-3.05556 -0.56547,-4.375 -1.875,-4.375 -2.48766,0 -2.3704,-1.22333 0.3125,-3.25994 3.56741,-2.70805 4.0625,-2.08227 4.0625,5.13494 0,3.78125 -0.5625,6.875 -1.25,6.875 -0.6875,0 -1.25,-1.96875 -1.25,-4.375 z m -274.24126,-0.10224 c -1.02073,-2.65996 -1.02263,-2.65403 1.11626,-3.4748 3.01665,-1.15759 5.40949,0.38117 4.71608,3.03276 -0.76119,2.91077 -4.76845,3.21449 -5.83234,0.44204 z m 359.24126,-11.14776 c 0,-3.05556 -0.56547,-4.375 -1.875,-4.375 -2.48766,0 -2.3704,-1.22333 0.3125,-3.25994 3.56741,-2.70805 4.0625,-2.08227 4.0625,5.13494 0,3.78125 -0.5625,6.875 -1.25,6.875 -0.6875,0 -1.25,-1.96875 -1.25,-4.375 z m 6.25,3.125 c 0,-0.6875 0.5625,-1.25 1.25,-1.25 0.6875,0 1.25,0.5625 1.25,1.25 0,0.6875 -0.5625,1.25 -1.25,1.25 -0.6875,0 -1.25,-0.5625 -1.25,-1.25 z m 5,0 c 0,-0.6875 0.5625,-1.25 1.25,-1.25 0.6875,0 1.25,0.5625 1.25,1.25 0,0.6875 -0.5625,1.25 -1.25,1.25 -0.6875,0 -1.25,-0.5625 -1.25,-1.25 z m 4.50874,-8.22723 c -1.02073,-2.65997 -1.02263,-2.65403 1.11626,-3.4748 3.01665,-1.1576 5.40949,0.38116 4.71608,3.03276 -0.76119,2.91077 -4.76845,3.21448 -5.83234,0.44204 z"
       id="path3816"
       inkscape:connector-curvature="0"
       sodipodi:nodetypes="ccscccccccscsscccccsscccccssssscccccccccccssscccsscccccccccsscccsscccccccccccssscsscccccccccccssscsscscsccccsscsccscccscsscccssccccccccccccsscccsscccccccscsscccccsscccccssscccsscccccsscccsccccccccccccccccccccccccccccccccccccccccccccccccccccccccsscsssscssccccccsscccsscccccccssssscsscsccsssssssssssssssssssssssssssssssssssssssssssssssssssssssssssssscccccccccccccccccccccccccccscccccssscccccccccsscsssscsscccccccccscsssscscccccccccscsscscssscccccccccccccccccccccccccccsscsscscsscccccccccccccccccccccccccccsscsssscsscccccccccccccccccccccccccccsssssssssssssssssssssssssssssssssssssssssssssssssssssssssssssssssssssssssssssssssssssssssssssssssssssscssssssssssssssssssssssssssss" />
    <text
       xml:space="preserve"
       style="font-style:normal;font-weight:normal;font-size:21.09270859px;line-height:125%;font-family:Sans;letter-spacing:0px;word-spacing:0px;fill:#000000;fill-opacity:1;stroke:none;stroke-width:1px;stroke-linecap:butt;stroke-linejoin:miter;stroke-opacity:1"
       x="-320.44299"
       y="419.19305"
       id="text3837"
       sodipodi:linespacing="125%"><tspan
         sodipodi:role="line"
         id="tspan3839"
         x="-320.44299"
         y="419.19305">Repository</tspan></text>
    <text
       sodipodi:linespacing="125%"
       id="text3841"
       y="221.76753"
       x="66.222076"
       style="font-style:normal;font-weight:normal;font-size:21.09270859px;line-height:125%;font-family:Sans;letter-spacing:0px;word-spacing:0px;fill:#000000;fill-opacity:1;stroke:none;stroke-width:1px;stroke-linecap:butt;stroke-linejoin:miter;stroke-opacity:1"
       xml:space="preserve"><tspan
         y="221.76753"
         x="66.222076"
         id="tspan3843"
         sodipodi:role="line">Preamble</tspan></text>
    <text
       xml:space="preserve"
       style="font-style:normal;font-weight:normal;font-size:21.09270859px;line-height:125%;font-family:Sans;letter-spacing:0px;word-spacing:0px;fill:#000000;fill-opacity:1;stroke:none;stroke-width:1px;stroke-linecap:butt;stroke-linejoin:miter;stroke-opacity:1"
       x="63.814453"
       y="580.50409"
       id="text3845"
       sodipodi:linespacing="125%"><tspan
         sodipodi:role="line"
         id="tspan3847"
         x="63.814453"
         y="580.50409">Revision</tspan></text>
    <text
       xml:space="preserve"
       style="font-style:normal;font-weight:normal;font-size:21.09270859px;line-height:125%;font-family:Sans;letter-spacing:0px;word-spacing:0px;fill:#000000;fill-opacity:1;stroke:none;stroke-width:1px;stroke-linecap:butt;stroke-linejoin:miter;stroke-opacity:1"
       x="19.995625"
       y="267.99399"
       id="text3849"
       sodipodi:linespacing="125%"><tspan
         sodipodi:role="line"
         id="tspan3851"
         x="19.995625"
         y="267.99399">uuid</tspan></text>
    <text
       sodipodi:linespacing="125%"
       id="text3853"
       y="642.62097"
       x="12.772735"
       style="font-style:normal;font-weight:normal;font-size:21.09270859px;line-height:125%;font-family:Sans;letter-spacing:0px;word-spacing:0px;fill:#000000;fill-opacity:1;stroke:none;stroke-width:1px;stroke-linecap:butt;stroke-linejoin:miter;stroke-opacity:1"
       xml:space="preserve"><tspan
         y="642.62097"
         x="12.772735"
         id="tspan3855"
         sodipodi:role="line">number</tspan></text>
    <text
       sodipodi:linespacing="125%"
       id="text3857"
       y="582.43018"
       x="439.88596"
       style="font-style:normal;font-weight:normal;font-size:21.09270859px;line-height:125%;font-family:Sans;letter-spacing:0px;word-spacing:0px;fill:#000000;fill-opacity:1;stroke:none;stroke-width:1px;stroke-linecap:butt;stroke-linejoin:miter;stroke-opacity:1"
       xml:space="preserve"><tspan
         y="582.43018"
         x="439.88596"
         id="tspan3859"
         sodipodi:role="line">Property</tspan></text>
    <text
       xml:space="preserve"
       style="font-style:normal;font-weight:normal;font-size:21.09270859px;line-height:125%;font-family:Sans;letter-spacing:0px;word-spacing:0px;fill:#000000;fill-opacity:1;stroke:none;stroke-width:1px;stroke-linecap:butt;stroke-linejoin:miter;stroke-opacity:1"
       x="390.77036"
       y="632.50885"
       id="text3861"
       sodipodi:linespacing="125%"><tspan
         sodipodi:role="line"
         id="tspan3863"
         x="390.77036"
         y="632.50885">name</tspan></text>
    <text
       sodipodi:linespacing="125%"
       id="text3865"
       y="658.51129"
       x="390.28882"
       style="font-style:normal;font-weight:normal;font-size:21.09270859px;line-height:125%;font-family:Sans;letter-spacing:0px;word-spacing:0px;fill:#000000;fill-opacity:1;stroke:none;stroke-width:1px;stroke-linecap:butt;stroke-linejoin:miter;stroke-opacity:1"
       xml:space="preserve"><tspan
         y="658.51129"
         x="390.28882"
         id="tspan3867"
         sodipodi:role="line">value</tspan></text>
    <text
       xml:space="preserve"
       style="font-style:normal;font-weight:normal;font-size:21.09270859px;line-height:125%;font-family:Sans;letter-spacing:0px;word-spacing:0px;fill:#000000;fill-opacity:1;stroke:none;stroke-width:1px;stroke-linecap:butt;stroke-linejoin:miter;stroke-opacity:1"
       x="460.59155"
       y="222.24902"
       id="text3869"
       sodipodi:linespacing="125%"><tspan
         sodipodi:role="line"
         id="tspan3871"
         x="460.59155"
         y="222.24902">Node</tspan></text>
    <text
       sodipodi:linespacing="125%"
       id="text3918"
       y="222.24902"
       x="801.56354"
       style="font-style:normal;font-weight:normal;font-size:21.09270859px;line-height:125%;font-family:Sans;letter-spacing:0px;word-spacing:0px;fill:#000000;fill-opacity:1;stroke:none;stroke-width:1px;stroke-linecap:butt;stroke-linejoin:miter;stroke-opacity:1"
       xml:space="preserve"><tspan
         y="222.24902"
         x="801.56354"
         id="tspan3920"
         sodipodi:role="line">NodeHeader</tspan></text>
    <text
       xml:space="preserve"
       style="font-style:normal;font-weight:normal;font-size:21.09270859px;line-height:125%;font-family:Sans;letter-spacing:0px;word-spacing:0px;fill:#000000;fill-opacity:1;stroke:none;stroke-width:1px;stroke-linecap:butt;stroke-linejoin:miter;stroke-opacity:1"
       x="766.53217"
       y="264.28665"
       id="text3922"
       sodipodi:linespacing="125%"><tspan
         sodipodi:role="line"
         id="tspan3924"
         x="766.53217"
         y="264.28665">encoding</tspan></text>
    <text
       sodipodi:linespacing="125%"
       id="text3926"
       y="293.09021"
       x="766.53217"
       style="font-style:normal;font-weight:normal;font-size:21.09270859px;line-height:125%;font-family:Sans;letter-spacing:0px;word-spacing:0px;fill:#000000;fill-opacity:1;stroke:none;stroke-width:1px;stroke-linecap:butt;stroke-linejoin:miter;stroke-opacity:1"
       xml:space="preserve"><tspan
         y="293.09021"
         x="766.53217"
         id="tspan3928"
         sodipodi:role="line">value</tspan></text>
    <text
       xml:space="preserve"
       style="font-style:normal;font-weight:normal;font-size:21.09270859px;line-height:125%;font-family:Sans;letter-spacing:0px;word-spacing:0px;fill:#000000;fill-opacity:1;stroke:none;stroke-width:1px;stroke-linecap:butt;stroke-linejoin:miter;stroke-opacity:1"
       x="789.10791"
       y="584.23981"
       id="text3930"
       sodipodi:linespacing="125%"><tspan
         sodipodi:role="line"
         id="tspan3932"
         x="789.10791"
         y="584.23981">ContentChunk</tspan></text>
    <text
       sodipodi:linespacing="125%"
       id="text3934"
       y="631.72675"
       x="766.53217"
       style="font-style:normal;font-weight:normal;font-size:21.09270859px;line-height:125%;font-family:Sans;letter-spacing:0px;word-spacing:0px;fill:#000000;fill-opacity:1;stroke:none;stroke-width:1px;stroke-linecap:butt;stroke-linejoin:miter;stroke-opacity:1"
       xml:space="preserve"><tspan
         y="631.72675"
         x="766.53217"
         id="tspan3936"
         sodipodi:role="line">content</tspan></text>
  </g>
</svg>
